<svg height="24" viewBox="0 0 24 24" width="24" xmlns="http://www.w3.org/2000/svg"><path d="m19.071 4.929c-1.895-1.895-4.405-2.938-7.07-2.938-2.666 0-5.177 1.044-7.072 2.938-3.899 3.898-3.899 10.243 0 14.142 1.895 1.895 4.406 2.938 7.073 2.938 2.666 0 5.176-1.043 7.07-2.937 3.899-3.898 3.899-10.243-.001-14.143zm-6.89-.929h-.359c.061-.001.119-.009.18-.009s.118.008.179.009zm6.062 13h-2.243l-1.258 2.516c-.868.318-1.791.493-2.741.493-.952 0-1.876-.175-2.746-.494l-1.255-2.505h-2.235c-.846-1.052-1.387-2.269-1.623-3.532l1.858-2.478-1.216-2.433c.381-.804.895-1.56 1.559-2.224.919-.92 2.021-1.584 3.22-1.969l2.437 1.626 2.438-1.625c1.198.385 2.301 1.049 3.22 1.968.663.663 1.177 1.418 1.558 2.221l-1.216 2.436 1.858 2.478c-.235 1.259-.773 2.472-1.615 3.522z"/><path d="m8.5 11 1.5 4h4l1.5-4-3.5-2.5z"/></svg>